<svg width="32" height="32" viewBox="0 0 32 32" fill="none" xmlns="http://www.w3.org/2000/svg">
<path opacity="0.5" d="M14.7453 0.165962C15.5671 -0.0553207 16.4329 -0.0553207 17.2547 0.165962C18.1947 0.418828 19.0074 1.05003 19.9957 1.81442L20.1887 1.96498L20.569 2.25838C21.038 2.61934 21.15 2.70234 21.2619 2.76218C21.3829 2.82781 21.509 2.87993 21.6403 2.91853C21.7619 2.95521 21.8989 2.97644 22.4857 3.05365L22.9625 3.11156L23.2057 3.14438C24.445 3.30266 25.4641 3.43199 26.3077 3.91648C27.047 4.34114 27.6589 4.95304 28.0835 5.69234C28.568 6.53394 28.6973 7.55505 28.8556 8.79429L28.8865 9.0375L28.9483 9.51428C29.0236 10.1011 29.0448 10.2381 29.0815 10.3597C29.1201 10.491 29.1716 10.6171 29.2359 10.7381C29.2977 10.85 29.3807 10.962 29.7416 11.431L30.035 11.8113L30.1856 12.0043C30.95 12.9926 31.5812 13.8053 31.834 14.7453C32.0553 15.5671 32.0553 16.4329 31.834 17.2547C31.5812 18.1947 30.95 19.0074 30.1856 19.9957L30.035 20.1887L29.7416 20.569C29.3807 21.038 29.2977 21.15 29.2378 21.2619C29.1724 21.3821 29.12 21.509 29.0815 21.6403C29.0448 21.7619 29.0236 21.8989 28.9464 22.4857L28.8884 22.9625L28.8556 23.2057C28.6973 24.445 28.568 25.4641 28.0835 26.3077C27.6587 27.046 27.046 27.6587 26.3077 28.0835C25.4661 28.568 24.445 28.6973 23.2057 28.8556L22.9625 28.8865L22.4857 28.9483C21.8989 29.0236 21.7619 29.0448 21.6403 29.0815C21.509 29.1194 21.3822 29.1712 21.2619 29.2359C21.15 29.2977 21.038 29.3807 20.569 29.7416L20.1887 30.035L19.9957 30.1856C19.0074 30.95 18.1947 31.5812 17.2547 31.834C16.4329 32.0553 15.5671 32.0553 14.7453 31.834C13.8053 31.5812 12.9926 30.95 12.0043 30.1856L11.8113 30.035L11.431 29.7416C10.962 29.3807 10.85 29.2977 10.7381 29.2378C10.6179 29.1724 10.491 29.12 10.3597 29.0815C10.2381 29.0448 10.1011 29.0236 9.51428 28.9464L9.0375 28.8884L8.79429 28.8556C7.55505 28.6973 6.53587 28.568 5.69234 28.0835C4.95403 27.6587 4.34133 27.046 3.91648 26.3077C3.43199 25.4661 3.30266 24.445 3.14438 23.2057L3.11349 22.9625L3.05172 22.4857C2.97644 21.8989 2.95521 21.7619 2.91853 21.6403C2.88059 21.509 2.82883 21.3822 2.76411 21.2619C2.70234 21.15 2.61934 21.038 2.25838 20.569L1.96498 20.1887L1.81442 19.9957C1.05003 19.0074 0.418828 18.1947 0.165962 17.2547C-0.0553207 16.4329 -0.0553207 15.5671 0.165962 14.7453C0.418828 13.8053 1.05003 12.9926 1.81442 12.0043L1.96498 11.8113L2.25838 11.431C2.61934 10.962 2.70234 10.85 2.76218 10.7381C2.82756 10.6179 2.87997 10.491 2.91853 10.3597C2.95521 10.2381 2.97644 10.1011 3.05365 9.51428L3.11156 9.0375L3.14438 8.79429C3.30266 7.55505 3.43199 6.53587 3.91648 5.69234C4.34133 4.95403 4.95403 4.34133 5.69234 3.91648C6.53394 3.43199 7.55505 3.30266 8.79429 3.14438L9.0375 3.11349L9.51428 3.05172C10.1011 2.97644 10.2381 2.95521 10.3597 2.91853C10.491 2.88059 10.6178 2.82883 10.7381 2.76411C10.85 2.70234 10.962 2.61934 11.431 2.25838L11.8113 1.96498L12.0043 1.81442C12.9926 1.05003 13.8053 0.418828 14.7453 0.165962ZM16.5019 2.96293C16.1731 2.87442 15.8269 2.87442 15.4981 2.96293C15.1931 3.044 14.8689 3.26212 13.5814 4.25621L13.2011 4.54961L13.1316 4.60173C12.7649 4.88548 12.4637 5.12098 12.1221 5.30628C11.8227 5.46915 11.507 5.59985 11.1801 5.6962C10.8076 5.80622 10.4273 5.85448 9.96789 5.91239L9.88296 5.92397L9.40618 5.98574C7.79248 6.19228 7.41028 6.26949 7.13618 6.42584C6.84086 6.59578 6.59578 6.84086 6.42584 7.13618C6.26949 7.41028 6.19228 7.79248 5.98574 9.40618L5.92397 9.88296L5.91239 9.96789C5.87271 10.3771 5.80042 10.7824 5.6962 11.1801C5.59985 11.507 5.46915 11.8227 5.30628 12.1221C5.09868 12.4768 4.86308 12.8144 4.60173 13.1316L4.54961 13.2011L4.25621 13.5814C3.26212 14.8689 3.044 15.1931 2.96293 15.4981C2.87442 15.8269 2.87442 16.1731 2.96293 16.5019C3.044 16.8069 3.26212 17.1311 4.25621 18.4186L4.54961 18.7989L4.60173 18.8684C4.88548 19.2351 5.12098 19.5363 5.30628 19.8779C5.46915 20.1773 5.59985 20.493 5.6962 20.8199C5.80622 21.1924 5.85448 21.5727 5.91239 22.0321L5.92397 22.117L5.98574 22.5938C6.19228 24.2075 6.26949 24.5917 6.42584 24.8638C6.59578 25.1591 6.84086 25.4042 7.13618 25.5742C7.41028 25.7305 7.79248 25.8077 9.40618 26.0143L9.88296 26.076L9.96789 26.0876C10.4273 26.1455 10.8076 26.1938 11.1801 26.3038C11.5083 26.4003 11.8222 26.5309 12.1221 26.6957C12.4637 26.879 12.7668 27.1145 13.1316 27.3983L13.2011 27.4504L13.5814 27.7438C14.8689 28.7379 15.1931 28.956 15.4981 29.0371C15.8269 29.1256 16.1731 29.1256 16.5019 29.0371C16.8069 28.956 17.1311 28.7379 18.4186 27.7438L18.7989 27.4504L18.8684 27.3983C19.2351 27.1145 19.5363 26.879 19.8779 26.6957C20.1772 26.5321 20.4929 26.4008 20.8199 26.3038C21.1924 26.1938 21.5727 26.1455 22.0321 26.0876L22.117 26.076L22.5938 26.0143C24.2075 25.8077 24.5917 25.7305 24.8638 25.5742C25.1591 25.4042 25.4042 25.1591 25.5742 24.8638C25.7305 24.5917 25.8077 24.2075 26.0143 22.5938L26.076 22.117L26.0876 22.0321C26.1455 21.5727 26.1938 21.1924 26.3038 20.8199C26.4008 20.4929 26.5321 20.1772 26.6957 19.8779C26.879 19.5363 27.1145 19.2332 27.3983 18.8684L27.4504 18.7989L27.7438 18.4186C28.7379 17.1311 28.956 16.8069 29.0371 16.5019C29.1256 16.1731 29.1256 15.8269 29.0371 15.4981C28.956 15.1931 28.7379 14.8689 27.7438 13.5814L27.4504 13.2011L27.3983 13.1316C27.1376 12.8143 26.9026 12.4767 26.6957 12.1221C26.5321 11.8228 26.4008 11.5071 26.3038 11.1801C26.1996 10.7824 26.1273 10.3771 26.0876 9.96789L26.076 9.88296L26.0143 9.40618C25.8077 7.79248 25.7305 7.41028 25.5742 7.13618C25.4042 6.84086 25.1591 6.59578 24.8638 6.42584C24.5917 6.26949 24.2075 6.19228 22.5938 5.98574L22.117 5.92397L22.0321 5.91239C21.6229 5.87271 21.2176 5.80042 20.8199 5.6962C20.493 5.59985 20.1773 5.46915 19.8779 5.30628C19.5232 5.09868 19.1856 4.86308 18.8684 4.60173L18.7989 4.54961L18.4186 4.25621C17.1311 3.26212 16.8069 3.044 16.5019 2.96293Z" fill="white"/>
<path d="M16.1081 7.12083C16.7875 7.12083 17.3377 7.6864 17.3377 8.38516V9.64949H17.3415C19.3799 9.64949 21.0226 11.3443 21.0226 13.4405C21.0272 13.7709 20.9005 14.0897 20.6703 14.3267C20.4402 14.5638 20.1253 14.6998 19.7949 14.7049C19.6311 14.7026 19.4694 14.6681 19.319 14.6033C19.1686 14.5386 19.0324 14.4448 18.9182 14.3274C18.804 14.21 18.7141 14.0712 18.6536 13.9191C18.593 13.7669 18.563 13.6043 18.5653 13.4405C18.5692 13.2767 18.5404 13.1137 18.4806 12.9611C18.4209 12.8085 18.3313 12.6693 18.2173 12.5517C18.1032 12.434 17.9668 12.3402 17.8162 12.2757C17.6655 12.2113 17.5035 12.1775 17.3396 12.1762H14.5658C14.4441 12.1777 14.3239 12.2032 14.2121 12.2512C14.1003 12.2991 13.999 12.3686 13.914 12.4558C13.829 12.5429 13.7621 12.6459 13.7169 12.7589C13.6718 12.8719 13.6493 12.9927 13.6508 13.1143C13.6508 13.5834 13.7512 13.7127 13.7744 13.7417C13.813 13.7919 13.9191 13.8864 14.2724 14.0119L18.7294 15.531C19.2467 15.7106 19.8702 16.0001 20.3412 16.5888C20.8315 17.2027 21.0226 17.967 21.0226 18.8202C21.0226 20.737 19.5092 22.287 17.6504 22.287H17.3377V23.5513C17.34 23.7151 17.31 23.8777 17.2494 24.0299C17.1889 24.182 17.0989 24.3208 16.9848 24.4382C16.8706 24.5556 16.7344 24.6494 16.584 24.7141C16.4335 24.7789 16.2718 24.8134 16.1081 24.8157C15.7777 24.8106 15.4628 24.6746 15.2326 24.4375C15.0025 24.2004 14.8758 23.8817 14.8804 23.5513V22.287H14.8766C12.8363 22.287 11.1936 20.5903 11.1936 18.4959C11.1936 17.7972 11.7437 17.2316 12.4213 17.2316C13.0988 17.2316 13.6508 17.7972 13.6508 18.4959C13.6508 19.1986 14.1971 19.7603 14.8766 19.7603H17.6504C18.1561 19.7603 18.5653 19.3356 18.5653 18.8202C18.5653 18.3531 18.4649 18.2218 18.4437 18.1948C18.4032 18.1446 18.297 18.0481 17.9457 17.9246L13.4868 16.4055C12.9695 16.2259 12.346 15.9364 11.875 15.3457C11.3847 14.7338 11.1936 13.9694 11.1936 13.1143C11.1936 11.1995 12.7069 9.64949 14.5658 9.64949H14.8785V8.38516C14.8785 7.6864 15.4286 7.12083 16.1081 7.12083Z" fill="white"/>
</svg>
